<svg width="200" height="200" viewBox="0 0 200 200" xmlns="http://www.w3.org/2000/svg">
  <defs>
    <pattern id="qr-pattern" x="0" y="0" width="10" height="10" patternUnits="userSpaceOnUse">
      <rect width="8" height="8" fill="#000000"/>
      <rect x="2" y="2" width="4" height="4" fill="#ffffff"/>
    </pattern>
  </defs>
  
  <!-- Background -->
  <rect width="200" height="200" fill="#ffffff"/>
  
  <!-- QR Code Pattern -->
  <rect width="200" height="200" fill="url(#qr-pattern)"/>
  
  <!-- Center Logo Area -->
  <rect x="80" y="80" width="40" height="40" fill="#ffffff"/>
  <circle cx="100" cy="100" r="15" fill="#E6C78B"/>
  <text x="100" y="105" text-anchor="middle" font-family="Arial, sans-serif" font-size="12" font-weight="bold" fill="#000000">AKASA</text>
  
  <!-- Corner Squares -->
  <rect x="10" y="10" width="20" height="20" fill="#000000"/>
  <rect x="12" y="12" width="16" height="16" fill="#ffffff"/>
  <rect x="14" y="14" width="12" height="12" fill="#000000"/>
  
  <rect x="170" y="10" width="20" height="20" fill="#000000"/>
  <rect x="172" y="12" width="16" height="16" fill="#ffffff"/>
  <rect x="174" y="14" width="12" height="12" fill="#000000"/>
  
  <rect x="10" y="170" width="20" height="20" fill="#000000"/>
  <rect x="12" y="172" width="16" height="16" fill="#ffffff"/>
  <rect x="14" y="174" width="12" height="12" fill="#000000"/>
</svg> 